<svg width="21" height="15" viewBox="0 0 21 15" fill="none" xmlns="http://www.w3.org/2000/svg">
<mask id="path-1-outside-1_0_2676" maskUnits="userSpaceOnUse" x="-0.823516" y="-0.823516" width="22.647" height="16.4706" fill="black">
<rect fill="white" x="-0.823516" y="-0.823516" width="22.647" height="16.4706"/>
<path fill-rule="evenodd" clip-rule="evenodd" d="M13.0735 0.205895C13.9263 0.205895 14.6176 0.897219 14.6176 1.75001V13.0735C14.6176 13.9263 13.9263 14.6176 13.0735 14.6176H1.75001C0.897219 14.6176 0.205895 13.9263 0.205895 13.0735V1.75001C0.205895 0.897219 0.897219 0.205895 1.75001 0.205895H13.0735ZM20.6769 2.45824C20.7539 2.60546 20.7941 2.76912 20.7941 2.93525V11.6399C20.7941 12.2084 20.3332 12.6693 19.7647 12.6693C19.5988 12.6693 19.4353 12.6292 19.2882 12.5524L16.6765 11.1887V3.38846L19.2877 2.02303C19.7915 1.75958 20.4135 1.95443 20.6769 2.45824ZM7.41177 2.26472C4.56913 2.26472 2.26472 4.56913 2.26472 7.41177C2.26472 10.2544 4.56913 12.5588 7.41177 12.5588C10.2544 12.5588 12.5588 10.2544 12.5588 7.41177C12.5588 4.56913 10.2544 2.26472 7.41177 2.26472ZM7.41177 4.32354C9.11735 4.32354 10.5 5.70619 10.5 7.41177C10.5 9.11735 9.11735 10.5 7.41177 10.5C5.70619 10.5 4.32354 9.11735 4.32354 7.41177C4.32354 5.70619 5.70619 4.32354 7.41177 4.32354Z"/>
</mask>
<path fill-rule="evenodd" clip-rule="evenodd" d="M13.0735 0.205895C13.9263 0.205895 14.6176 0.897219 14.6176 1.75001V13.0735C14.6176 13.9263 13.9263 14.6176 13.0735 14.6176H1.75001C0.897219 14.6176 0.205895 13.9263 0.205895 13.0735V1.75001C0.205895 0.897219 0.897219 0.205895 1.75001 0.205895H13.0735ZM20.6769 2.45824C20.7539 2.60546 20.7941 2.76912 20.7941 2.93525V11.6399C20.7941 12.2084 20.3332 12.6693 19.7647 12.6693C19.5988 12.6693 19.4353 12.6292 19.2882 12.5524L16.6765 11.1887V3.38846L19.2877 2.02303C19.7915 1.75958 20.4135 1.95443 20.6769 2.45824ZM7.41177 2.26472C4.56913 2.26472 2.26472 4.56913 2.26472 7.41177C2.26472 10.2544 4.56913 12.5588 7.41177 12.5588C10.2544 12.5588 12.5588 10.2544 12.5588 7.41177C12.5588 4.56913 10.2544 2.26472 7.41177 2.26472ZM7.41177 4.32354C9.11735 4.32354 10.5 5.70619 10.5 7.41177C10.5 9.11735 9.11735 10.5 7.41177 10.5C5.70619 10.5 4.32354 9.11735 4.32354 7.41177C4.32354 5.70619 5.70619 4.32354 7.41177 4.32354Z" fill="#FEFFFE"/>
<path d="M20.6769 2.45824L20.8594 2.36284L20.6769 2.45824ZM19.2882 12.5524L19.193 12.7349L19.2882 12.5524ZM16.6765 11.1887H16.4706V11.3135L16.5812 11.3712L16.6765 11.1887ZM16.6765 3.38846L16.5811 3.20601L16.4706 3.26379V3.38846H16.6765ZM19.2877 2.02303L19.3831 2.20547L19.2877 2.02303ZM13.0735 0.411777C13.8126 0.411777 14.4118 1.01092 14.4118 1.75001H14.8235C14.8235 0.783513 14.04 1.2563e-05 13.0735 1.2563e-05V0.411777ZM14.4118 1.75001V13.0735H14.8235V1.75001H14.4118ZM14.4118 13.0735C14.4118 13.8126 13.8126 14.4118 13.0735 14.4118V14.8235C14.04 14.8235 14.8235 14.04 14.8235 13.0735H14.4118ZM13.0735 14.4118H1.75001V14.8235H13.0735V14.4118ZM1.75001 14.4118C1.01092 14.4118 0.411777 13.8126 0.411777 13.0735H1.2563e-05C1.2563e-05 14.04 0.783513 14.8235 1.75001 14.8235V14.4118ZM0.411777 13.0735V1.75001H1.2563e-05V13.0735H0.411777ZM0.411777 1.75001C0.411777 1.01092 1.01092 0.411777 1.75001 0.411777V1.2563e-05C0.783513 1.2563e-05 1.2563e-05 0.783513 1.2563e-05 1.75001H0.411777ZM1.75001 0.411777H13.0735V1.2563e-05H1.75001V0.411777ZM20.4945 2.55364C20.5561 2.67141 20.5882 2.80234 20.5882 2.93525H21C21 2.73589 20.9517 2.5395 20.8594 2.36284L20.4945 2.55364ZM20.5882 2.93525V11.6399H21V2.93525H20.5882ZM20.5882 11.6399C20.5882 12.0947 20.2195 12.4634 19.7647 12.4634V12.8752C20.4469 12.8752 21 12.3221 21 11.6399H20.5882ZM19.7647 12.4634C19.632 12.4634 19.5012 12.4313 19.3835 12.3699L19.193 12.7349C19.3694 12.8271 19.5656 12.8752 19.7647 12.8752V12.4634ZM19.3835 12.3699L16.7718 11.0062L16.5812 11.3712L19.193 12.7349L19.3835 12.3699ZM16.8823 11.1887V3.38846H16.4706V11.1887H16.8823ZM16.7719 3.5709L19.3831 2.20547L19.1923 1.84058L16.5811 3.20601L16.7719 3.5709ZM19.3831 2.20547C19.7861 1.99471 20.2837 2.1506 20.4945 2.55364L20.8594 2.36284C20.5432 1.75827 19.7969 1.52445 19.1923 1.84058L19.3831 2.20547ZM7.41177 2.05883C4.45542 2.05883 2.05883 4.45542 2.05883 7.41177H2.4706C2.4706 4.68284 4.68284 2.4706 7.41177 2.4706V2.05883ZM2.05883 7.41177C2.05883 10.3681 4.45542 12.7647 7.41177 12.7647V12.3529C4.68284 12.3529 2.4706 10.1407 2.4706 7.41177H2.05883ZM7.41177 12.7647C10.3681 12.7647 12.7647 10.3681 12.7647 7.41177H12.3529C12.3529 10.1407 10.1407 12.3529 7.41177 12.3529V12.7647ZM12.7647 7.41177C12.7647 4.45542 10.3681 2.05883 7.41177 2.05883V2.4706C10.1407 2.4706 12.3529 4.68284 12.3529 7.41177H12.7647ZM7.41177 4.52942C9.00365 4.52942 10.2941 5.81989 10.2941 7.41177H10.7059C10.7059 5.59248 9.23106 4.11765 7.41177 4.11765V4.52942ZM10.2941 7.41177C10.2941 9.00365 9.00365 10.2941 7.41177 10.2941V10.7059C9.23106 10.7059 10.7059 9.23106 10.7059 7.41177H10.2941ZM7.41177 10.2941C5.81989 10.2941 4.52942 9.00365 4.52942 7.41177H4.11765C4.11765 9.23106 5.59248 10.7059 7.41177 10.7059V10.2941ZM4.52942 7.41177C4.52942 5.81989 5.81989 4.52942 7.41177 4.52942V4.11765C5.59248 4.11765 4.11765 5.59248 4.11765 7.41177H4.52942Z" fill="black" fill-opacity="0.2" mask="url(#path-1-outside-1_0_2676)"/>
</svg>
