<svg width="24" height="24" viewBox="0 0 24 24" fill="none" xmlns="http://www.w3.org/2000/svg">
<path fill-rule="evenodd" clip-rule="evenodd" d="M20.0308 10.0154C20.0308 4.48405 15.5468 0 10.0154 0C4.48405 0 0 4.48405 0 10.0154C0 15.5468 4.48405 20.0308 10.0154 20.0308C12.504 20.0308 14.7805 19.1232 16.5321 17.6209L22.6848 23.7743L22.7712 23.8489C23.0728 24.0727 23.5008 24.0478 23.7743 23.7743C24.0752 23.4734 24.0752 22.9856 23.7743 22.6848L17.6209 16.5321C19.1232 14.7805 20.0308 12.504 20.0308 10.0154ZM1.54083 10.0154C1.54083 5.33503 5.33503 1.54083 10.0154 1.54083C14.6958 1.54083 18.49 5.33503 18.49 10.0154C18.49 14.6958 14.6958 18.49 10.0154 18.49C5.33503 18.49 1.54083 14.6958 1.54083 10.0154Z" fill="#262626"/>
</svg>
