<svg width="21" height="18" viewBox="0 0 21 18" fill="none" xmlns="http://www.w3.org/2000/svg">
<path fill-rule="evenodd" clip-rule="evenodd" d="M20.2317 0H0.768293L0.66404 0.00701361C0.289036 0.0578873 0 0.379336 0 0.768293C0 1.19261 0.343976 1.53659 0.768293 1.53659H20.2317L20.336 1.52957C20.711 1.4787 21 1.15725 21 0.768293C21 0.343976 20.656 0 20.2317 0ZM0.768293 8.19512H20.2317C20.656 8.19512 21 8.5391 21 8.96341C21 9.35237 20.711 9.67382 20.336 9.72469L20.2317 9.73171H0.768293C0.343976 9.73171 0 9.38773 0 8.96341C0 8.57446 0.289036 8.25301 0.66404 8.20214L0.768293 8.19512ZM0.768293 16.3902H20.2317C20.656 16.3902 21 16.7342 21 17.1585C21 17.5475 20.711 17.8689 20.336 17.9198L20.2317 17.9268H0.768293C0.343976 17.9268 0 17.5829 0 17.1585C0 16.7696 0.289036 16.4481 0.66404 16.3973L0.768293 16.3902Z" fill="#262626"/>
</svg>
