<svg width="9" height="12" viewBox="0 0 9 12" fill="none" xmlns="http://www.w3.org/2000/svg">
<path fill-rule="evenodd" clip-rule="evenodd" d="M4.34043 0C5.89152 0 7.14894 1.25741 7.14894 2.80851L7.14975 4.35633C8.15693 4.48233 8.93617 5.34166 8.93617 6.38298V9.95745C8.93617 11.0855 8.02169 12 6.89362 12H2.04255C0.914482 12 0 11.0855 0 9.95745V6.38298C0 5.43124 0.650938 4.63153 1.5319 4.40478L1.53191 2.80851C1.53191 1.25741 2.78933 0 4.34043 0ZM4.34043 1.22553C3.46617 1.22553 2.75745 1.93426 2.75745 2.80851L2.75643 4.34043H5.9234V2.80851C5.9234 1.93426 5.21468 1.22553 4.34043 1.22553Z" fill="#262626"/>
</svg>
