<svg width="375" height="44" viewBox="0 0 375 44" fill="none" xmlns="http://www.w3.org/2000/svg">
<g filter="url(#filter0_d_0_2680)">
<rect width="375" height="44" transform="matrix(1 0 0 -1 0 44)" fill="#FAFAFA"/>
</g>
<rect width="186" height="44" fill="white" fill-opacity="0.01"/>
<path d="M0.5 43.5H185.5" stroke="#262626" stroke-linecap="square"/>
<path fill-rule="evenodd" clip-rule="evenodd" d="M82 33.5H104.5V11H82V33.5ZM89 32H83.5V26.5H89V32ZM96 26.5H90.5V32H96V26.5ZM97.5 26.5H103V32H97.5V26.5ZM89 19.5H83.5V25H89V19.5ZM90.5 19.5H96V25H90.5V19.5ZM103 19.5H97.5V25H103V19.5ZM103 12.5V18H97.5V12.5H103ZM89 12.5H83.5V18H89V12.5ZM90.5 12.5H96V18H90.5V12.5Z" fill="#262626"/>
<rect x="189" width="186" height="44" fill="white" fill-opacity="0.01"/>
<path fill-rule="evenodd" clip-rule="evenodd" d="M281.104 10.6366L283.468 13H289.5C291.157 13 292.5 14.3432 292.5 16V31C292.5 32.6569 291.157 34 289.5 34H272C270.343 34 269 32.6569 269 31V16C269 14.3432 270.343 13 272 13H278.03L280.396 10.6364C280.592 10.4416 280.908 10.4417 281.104 10.6366ZM280.75 12.4037L278.944 14.2076C278.756 14.3948 278.502 14.5 278.237 14.5H272C271.172 14.5 270.5 15.1716 270.5 16V31C270.5 31.8285 271.172 32.5 272 32.5H273C273 29.7386 275.239 27.5 278 27.5H283.5C286.261 27.5 288.5 29.7386 288.5 32.5H289.5C290.328 32.5 291 31.8285 291 31V16C291 15.1716 290.328 14.5 289.5 14.5H283.26C282.995 14.5001 282.741 14.3947 282.553 14.2072L280.75 12.4037ZM283.5 29C285.433 29 287 30.5671 287 32.5H274.5C274.5 30.5671 276.067 29 278 29H283.5ZM280.75 16.5C283.373 16.5 285.5 18.6267 285.5 21.25C285.5 23.8734 283.373 26 280.75 26C278.127 26 276 23.8734 276 21.25C276 18.6267 278.127 16.5 280.75 16.5ZM277.5 21.25C277.5 19.4551 278.955 18 280.75 18C282.545 18 284 19.4551 284 21.25C284 23.045 282.545 24.5 280.75 24.5C278.955 24.5 277.5 23.045 277.5 21.25Z" fill="black" fill-opacity="0.4"/>
<defs>
<filter id="filter0_d_0_2680" x="0" y="-0.33" width="375" height="44.33" filterUnits="userSpaceOnUse" color-interpolation-filters="sRGB">
<feFlood flood-opacity="0" result="BackgroundImageFix"/>
<feColorMatrix in="SourceAlpha" type="matrix" values="0 0 0 0 0 0 0 0 0 0 0 0 0 0 0 0 0 0 127 0" result="hardAlpha"/>
<feOffset dy="-0.33"/>
<feColorMatrix type="matrix" values="0 0 0 0 0.235294 0 0 0 0 0.235294 0 0 0 0 0.262745 0 0 0 0.29 0"/>
<feBlend mode="normal" in2="BackgroundImageFix" result="effect1_dropShadow_0_2680"/>
<feBlend mode="normal" in="SourceGraphic" in2="effect1_dropShadow_0_2680" result="shape"/>
</filter>
</defs>
</svg>
