<svg width="24" height="21" viewBox="0 0 24 21" fill="none" xmlns="http://www.w3.org/2000/svg">
<path d="M11.3788 1.91669L12.0433 2.6933L12.7855 1.91669C15.3973 -0.695086 19.4469 -0.573608 22.1323 1.91669L22.3216 2.0989C24.9333 4.71067 24.2933 9.93096 21.803 12.6165L21.4755 12.9626L21.1108 13.3345C19.7056 14.7457 12.992 20.5203 12.992 20.5203C12.42 20.9963 11.5877 20.9889 11.0244 20.5027L8.97846 18.7268L7.15691 17.1243C4.9917 15.2043 3.36648 13.7017 2.28123 12.6165C-0.392728 9.9425 -0.907338 4.77286 1.76662 2.0989C4.44058 -0.575055 8.70486 -0.757271 11.3788 1.91669Z" fill="#262626"/>
</svg>
