<svg width="14" height="14" viewBox="0 0 14 14" fill="none" xmlns="http://www.w3.org/2000/svg">
<path fill-rule="evenodd" clip-rule="evenodd" d="M11.7673 5.88364C11.7673 2.6342 9.13308 0 5.88364 0C2.6342 0 0 2.6342 0 5.88364C0 9.13308 2.6342 11.7673 5.88364 11.7673C7.23151 11.7673 8.47351 11.314 9.46557 10.5517L12.6899 13.7752L12.776 13.8495C13.0764 14.0724 13.5027 14.0477 13.7752 13.7752C14.0749 13.4755 14.0749 12.9896 13.7752 12.6899L10.5517 9.46557C11.314 8.47351 11.7673 7.23151 11.7673 5.88364ZM1.53486 5.88364C1.53486 3.48188 3.48188 1.53486 5.88364 1.53486C8.2854 1.53486 10.2324 3.48188 10.2324 5.88364C10.2324 8.2854 8.2854 10.2324 5.88364 10.2324C3.48188 10.2324 1.53486 8.2854 1.53486 5.88364Z" fill="#3C3C43" fill-opacity="0.6"/>
</svg>
