<svg width="20" height="20" viewBox="0 0 20 20" fill="none" xmlns="http://www.w3.org/2000/svg">
<path d="M9.89562 0.00702217L10 0C10.3894 0 10.7113 0.289389 10.7622 0.664851L10.7692 0.769231V9.23077H19.2308C19.6202 9.23077 19.942 9.52016 19.993 9.89562L20 10C20 10.3894 19.7106 10.7113 19.3351 10.7622L19.2308 10.7692H10.7692V19.2308C10.7692 19.6202 10.4798 19.942 10.1044 19.993L10 20C9.61057 20 9.28873 19.7106 9.23779 19.3351L9.23077 19.2308V10.7692H0.769231C0.379799 10.7692 0.057958 10.4798 0.00702217 10.1044L0 10C0 9.61057 0.289389 9.28873 0.664851 9.23779L0.769231 9.23077H9.23077V0.769231C9.23077 0.379799 9.52016 0.057958 9.89562 0.00702217L10 0L9.89562 0.00702217Z" fill="#262626"/>
</svg>
